# xmcd
#
# Track frame offsets:
#	150
#	11766
#	22814
#	32302
#	44230
#	55552
#	69582
#	78152
#	90714
#	100714
#	112189
#	124753
#	135654
#	148295
#	160007
#	171848
#	186238
#	196749
#	210975
#	224566
#	238374
#	248244
#	262123
#	272281
#	285222
#	299305
#	307340
#	308359
#
# Disc length: 4286 seconds
#
# Revision: 1
# Processed by: cddbd v1.5.2PL0 Copyright (c) Steve Scherf et al.
# Submitted via: audiograbber 1.83.01
#
DISCID=9310bc1c
DTITLE=Dolly Parton - A Discography - All The Recorded Hits [CD 1)(1966-1972)
DYEAR=2000
DGENRE=Country
TTITLE0=Put It Off Until Tomorrow (With Bill Phillips)
TTITLE1=Dumb Blonde
TTITLE2=Something Fishy 
TTITLE3=The Last Thing On My Mind (With Porter Wagoner)
TTITLE4=Holding On To Nothing (With Porter Wagoner)
TTITLE5=But You Know I Love You
TTITLE6=We'll Get Ahead Someday (With Porter Wagoner)
TTITLE7=Jeannie's Afraid Of The Dark (With Porter Wagoner)
TTITLE8=Yours Love (With Porter Wagoner)
TTITLE9=Daddy
TTITLE10=In The Ghetto
TTITLE11=Just Someone I Used To Know (With Porter Wagoner)
TTITLE12=In The Good Old Days (When The Times Were Bad)
TTITLE13=Always, Always (With Porter Wagoner)
TTITLE14=Tomorrow Is Forever (With Porter Wagoner)
TTITLE15=My Blue Ridge Mountain Boy
TTITLE16=Daddy Come And Get Me
TTITLE17=Mule Skinner Blues
TTITLE18=Daddy Was An Old Time Preacher Man (With Porter Wagoner)
TTITLE19=Joshua
TTITLE20=Better Move It On Home (With Porter Wagoner)
TTITLE21=Comin' For To Carry Me Home
TTITLE22=My Blue Tears
TTITLE23=The Right Combination (With Porter Wagoner)
TTITLE24=Coat Of Many Colors
TTITLE25=Burning The Midnight Oil (With Porter Wagoner)
TTITLE26=Touch Your Woman
TTITLE27=Lost Forever In Your Kiss (With Porter Wagoner)
EXTD=
EXTT0=
EXTT1=
EXTT2=
EXTT3=
EXTT4=
EXTT5=
EXTT6=
EXTT7=
EXTT8=
EXTT9=
EXTT10=
EXTT11=
EXTT12=
EXTT13=
EXTT14=
EXTT15=
EXTT16=
EXTT17=
EXTT18=
EXTT19=
EXTT20=
EXTT21=
EXTT22=
EXTT23=
EXTT24=
EXTT25=
EXTT26=
EXTT27=
PLAYORDER=
